<svg width="5" height="16" viewBox="0 0 5 16" fill="none" xmlns="http://www.w3.org/2000/svg">
<path d="M2.07407 11.8519C3.21963 11.8519 4.14815 12.7815 4.14815 13.9259C4.14815 15.0704 3.21963 16 2.07407 16C0.928519 16 0 15.0704 0 13.9259C0 12.7815 0.928519 11.8519 2.07407 11.8519ZM2.07407 5.92593C3.21963 5.92593 4.14815 6.85556 4.14815 8C4.14815 9.14444 3.21963 10.0741 2.07407 10.0741C0.928519 10.0741 0 9.14444 0 8C0 6.85556 0.928519 5.92593 2.07407 5.92593ZM2.07407 4.14815C0.928519 4.14815 0 3.21852 0 2.07407C0 0.928519 0.928519 0 2.07407 0C3.21963 0 4.14815 0.928519 4.14815 2.07407C4.14815 3.21852 3.21963 4.14815 2.07407 4.14815Z" fill="#167DF5"/>
</svg>
