<svg width="32" height="32" viewBox="0 0 32 32" fill="none" xmlns="http://www.w3.org/2000/svg">
<rect width="32" height="32" fill="white" fill-opacity="0.01"/>
<path fill-rule="evenodd" clip-rule="evenodd" d="M11.056 13.724C10.8069 13.9759 10.6672 14.3158 10.6672 14.67C10.6672 15.0242 10.8069 15.3641 11.056 15.616L14.9747 19.5693C15.2653 19.856 15.6413 19.9987 16.0133 19.9987C16.3853 19.9987 16.7547 19.856 17.0387 19.5693L20.9453 15.6293C21.1941 15.3773 21.3336 15.0374 21.3336 14.6833C21.3336 14.3292 21.1941 13.9894 20.9453 13.7373C20.8229 13.6131 20.677 13.5144 20.516 13.4471C20.3551 13.3797 20.1824 13.3451 20.008 13.3451C19.8336 13.3451 19.6609 13.3797 19.4999 13.4471C19.339 13.5144 19.1931 13.6131 19.0707 13.7373L16.0067 16.8267L12.9307 13.724C12.8079 13.6002 12.6619 13.502 12.5011 13.435C12.3402 13.3679 12.1676 13.3334 11.9933 13.3334C11.819 13.3334 11.6465 13.3679 11.4856 13.435C11.3247 13.502 11.1787 13.6002 11.056 13.724V13.724Z" fill="white"/>
</svg>
