<svg width="195" height="171" viewBox="0 0 195 171" fill="none" xmlns="http://www.w3.org/2000/svg">
<g filter="url(#filter0_d_9733_36707)">
<path fill-rule="evenodd" clip-rule="evenodd" d="M111.105 138H29.1C23.3281 138 18.6035 133.261 18.6035 127.47V10.5275C18.6035 4.73619 23.3281 0 29.1 0H111.105C116.879 0 121.604 4.73619 121.604 10.5275V127.47C121.604 133.261 116.879 138 111.105 138" fill="#DBDBDB"/>
<path fill-rule="evenodd" clip-rule="evenodd" d="M104.105 143H22.1C16.3281 143 11.6035 138.261 11.6035 132.47V15.5275C11.6035 9.73619 16.3281 5 22.1 5H104.105C109.879 5 114.604 9.73619 114.604 15.5275V132.47C114.604 138.261 109.879 143 104.105 143" fill="#363431"/>
<path fill-rule="evenodd" clip-rule="evenodd" d="M104.105 143H22.1C16.3281 143 11.6035 138.261 11.6035 132.47V15.5275C11.6035 9.73619 16.3281 5 22.1 5H104.105C109.879 5 114.604 9.73619 114.604 15.5275V132.47C114.604 138.261 109.879 143 104.105 143" fill="#167DF5"/>
<path fill-rule="evenodd" clip-rule="evenodd" d="M104.105 143H22.1C16.3281 143 11.6035 138.261 11.6035 132.47V15.5275C11.6035 9.73619 16.3281 5 22.1 5H104.105C109.879 5 114.604 9.73619 114.604 15.5275V132.47C114.604 138.261 109.879 143 104.105 143" fill="#1E9E46"/>
<path fill-rule="evenodd" clip-rule="evenodd" d="M104.105 143H22.1C16.3281 143 11.6035 138.261 11.6035 132.47V15.5275C11.6035 9.73619 16.3281 5 22.1 5H104.105C109.879 5 114.604 9.73619 114.604 15.5275V132.47C114.604 138.261 109.879 143 104.105 143" fill="#E33E16"/>
<path fill-rule="evenodd" clip-rule="evenodd" d="M104.105 143H22.1C16.3281 143 11.6035 138.261 11.6035 132.47V15.5275C11.6035 9.73619 16.3281 5 22.1 5H104.105C109.879 5 114.604 9.73619 114.604 15.5275V132.47C114.604 138.261 109.879 143 104.105 143" fill="#F5CA14"/>
<path fill-rule="evenodd" clip-rule="evenodd" d="M104.105 143H22.1C16.3281 143 11.6035 138.261 11.6035 132.47V15.5275C11.6035 9.73619 16.3281 5 22.1 5H104.105C109.879 5 114.604 9.73619 114.604 15.5275V132.47C114.604 138.261 109.879 143 104.105 143" fill="#18BDE3"/>
<path fill-rule="evenodd" clip-rule="evenodd" d="M104.105 143H22.1C16.3281 143 11.6035 138.261 11.6035 132.47V15.5275C11.6035 9.73619 16.3281 5 22.1 5H104.105C109.879 5 114.604 9.73619 114.604 15.5275V132.47C114.604 138.261 109.879 143 104.105 143" fill="#5F5F5F"/>
<path fill-rule="evenodd" clip-rule="evenodd" d="M104.105 143H22.1C16.3281 143 11.6035 138.261 11.6035 132.47V15.5275C11.6035 9.73619 16.3281 5 22.1 5H104.105C109.879 5 114.604 9.73619 114.604 15.5275V132.47C114.604 138.261 109.879 143 104.105 143" fill="#7A7A7A"/>
<path fill-rule="evenodd" clip-rule="evenodd" d="M104.105 143H22.1C16.3281 143 11.6035 138.261 11.6035 132.47V15.5275C11.6035 9.73619 16.3281 5 22.1 5H104.105C109.879 5 114.604 9.73619 114.604 15.5275V132.47C114.604 138.261 109.879 143 104.105 143" fill="#F4F4F4"/>
<path fill-rule="evenodd" clip-rule="evenodd" d="M97.2959 146.947H15.1217C9.33788 146.947 4.60352 142.228 4.60352 136.461V20.0025C4.60352 14.2352 9.33788 9.51863 15.1217 9.51863H97.2959C103.082 9.51863 107.816 14.2352 107.816 20.0025V136.461C107.816 142.228 103.082 146.947 97.2959 146.947" fill="#DBDBDB"/>
<path fill-rule="evenodd" clip-rule="evenodd" d="M97.2959 146.947H15.1217C9.33788 146.947 4.60352 142.228 4.60352 136.461V20.0025C4.60352 14.2352 9.33788 9.51863 15.1217 9.51863H97.2959C103.082 9.51863 107.816 14.2352 107.816 20.0025V136.461C107.816 142.228 103.082 146.947 97.2959 146.947" fill="#F8F9F9"/>
<path fill-rule="evenodd" clip-rule="evenodd" d="M85.4513 45H24.7557C23.0224 45 21.6035 43.6502 21.6035 42.0011C21.6035 40.3498 23.0224 39 24.7557 39H85.4513C87.1847 39 88.6035 40.3498 88.6035 42.0011C88.6035 43.6502 87.1847 45 85.4513 45" fill="#DBDBDB"/>
<path fill-rule="evenodd" clip-rule="evenodd" d="M85.4513 63H24.7557C23.0224 63 21.6035 61.6502 21.6035 60.0011C21.6035 58.3498 23.0224 57 24.7557 57H85.4513C87.1847 57 88.6035 58.3498 88.6035 60.0011C88.6035 61.6502 87.1847 63 85.4513 63" fill="#DBDBDB"/>
<path fill-rule="evenodd" clip-rule="evenodd" d="M85.4513 81H24.7557C23.0224 81 21.6035 79.6502 21.6035 78.0011C21.6035 76.3521 23.0224 75 24.7557 75H85.4513C87.1847 75 88.6035 76.3521 88.6035 78.0011C88.6035 79.6502 87.1847 81 85.4513 81" fill="#DBDBDB"/>
<path fill-rule="evenodd" clip-rule="evenodd" d="M85.4513 99H24.7557C23.0224 99 21.6035 97.6502 21.6035 96.0011C21.6035 94.3498 23.0224 93 24.7557 93H85.4513C87.1847 93 88.6035 94.3498 88.6035 96.0011C88.6035 97.6502 87.1847 99 85.4513 99" fill="#DBDBDB"/>
<path fill-rule="evenodd" clip-rule="evenodd" d="M56.4378 117H24.7692C23.0284 117 21.6035 115.65 21.6035 114.001C21.6035 112.35 23.0284 111 24.7692 111H56.4378C58.1786 111 59.6035 112.35 59.6035 114.001C59.6035 115.65 58.1786 117 56.4378 117" fill="#DBDBDB"/>
<path fill-rule="evenodd" clip-rule="evenodd" d="M120.358 93.7368C108.222 105.871 89.4327 107.24 75.7919 97.8715C74.0487 96.6527 72.3894 95.2838 70.8421 93.7368C70.0455 92.9429 69.2947 92.1236 68.5873 91.261C67.1723 89.5384 65.9329 87.7013 64.9175 85.8031C63.1284 82.597 61.912 79.1951 61.2477 75.6786C59.1049 64.6508 62.309 52.7808 70.8421 44.2517C79.3955 35.6971 91.2675 32.514 102.297 34.6361C105.812 35.3206 109.217 36.5368 112.423 38.3052C114.324 39.3434 116.136 40.5826 117.862 41.9973C118.722 42.7021 119.542 43.4553 120.336 44.2517C121.885 45.7987 123.275 47.4552 124.471 49.2007C133.844 62.8366 132.472 81.625 120.358 93.7368" fill="white" fill-opacity="0.1"/>
<path fill-rule="evenodd" clip-rule="evenodd" d="M116.962 91.3468C104.336 103.976 83.8734 103.973 71.2444 91.3468C58.6319 78.7343 58.6319 58.2696 71.2609 45.643C83.8734 33.0305 104.336 33.0305 116.948 45.643C129.575 58.2696 129.575 78.7343 116.962 91.3468ZM123.442 39.1555C107.235 22.9482 80.9716 22.9482 64.7643 39.1555C48.5593 55.3605 48.5452 81.6405 64.7502 97.8478C79.5008 112.594 102.621 113.924 118.882 101.816C120.47 100.632 122 99.3046 123.459 97.8478C124.916 96.3887 126.243 94.8592 127.425 93.2709C139.532 77.0071 138.191 53.9038 123.442 39.1555Z" fill="#DBDBDB"/>
<path fill-rule="evenodd" clip-rule="evenodd" d="M187.226 158.942L186.545 159.622C182.044 164.126 174.672 164.126 170.168 159.622L128.604 118.057L145.661 101L187.226 142.565C191.729 147.069 191.729 154.438 187.226 158.942" fill="#DFE1E6"/>
<path fill-rule="evenodd" clip-rule="evenodd" d="M128.321 92L140.604 104.283L131.884 113L119.604 100.717C121.224 99.5091 122.783 98.1545 124.274 96.668C125.76 95.1815 127.115 93.6207 128.321 92" fill="#DBDBDB"/>
<path fill-rule="evenodd" clip-rule="evenodd" d="M186.604 142.054L169.655 159L166.604 155.946L183.55 139L186.604 142.054Z" fill="#9D9D9B"/>
<path fill-rule="evenodd" clip-rule="evenodd" d="M146.604 101.587L129.191 119L126.604 116.413L144.016 99L146.604 101.587Z" fill="#9D9D9B"/>
<path fill-rule="evenodd" clip-rule="evenodd" d="M108.604 41.2986L65.9 84C64.2918 81.1177 63.1983 78.0593 62.6035 74.8979L99.501 38C102.66 38.6176 105.721 39.7088 108.604 41.2986" fill="white" fill-opacity="0.5"/>
<path fill-rule="evenodd" clip-rule="evenodd" d="M122.604 51.4484L76.4364 95C74.7831 93.9116 73.2094 92.6866 71.742 91.3022C70.9865 90.5895 70.2721 89.8586 69.6035 89.0867L116.333 45C117.151 45.633 117.928 46.307 118.681 47.0197C120.149 48.4041 121.469 49.8864 122.604 51.4484" fill="white" fill-opacity="0.5"/>
</g>
<defs>
<filter id="filter0_d_9733_36707" x="0.603516" y="0" width="194" height="171" filterUnits="userSpaceOnUse" color-interpolation-filters="sRGB">
<feFlood flood-opacity="0" result="BackgroundImageFix"/>
<feColorMatrix in="SourceAlpha" type="matrix" values="0 0 0 0 0 0 0 0 0 0 0 0 0 0 0 0 0 0 127 0" result="hardAlpha"/>
<feOffset dy="4"/>
<feGaussianBlur stdDeviation="2"/>
<feComposite in2="hardAlpha" operator="out"/>
<feColorMatrix type="matrix" values="0 0 0 0 0 0 0 0 0 0 0 0 0 0 0 0 0 0 0.25 0"/>
<feBlend mode="normal" in2="BackgroundImageFix" result="effect1_dropShadow_9733_36707"/>
<feBlend mode="normal" in="SourceGraphic" in2="effect1_dropShadow_9733_36707" result="shape"/>
</filter>
</defs>
</svg>
