<svg width="16" height="16" viewBox="0 0 16 16" fill="none" xmlns="http://www.w3.org/2000/svg">
<path d="M15.2 15.2004C14.9878 15.2004 14.7843 15.1162 14.6343 14.9663C14.4843 14.8163 14.4 14.613 14.4 14.401V11.2035H11.2C10.9878 11.2035 10.7843 11.1193 10.6343 10.9694C10.4843 10.8194 10.4 10.6161 10.4 10.4041C10.4 10.1921 10.4843 9.98877 10.6343 9.83886C10.7843 9.68894 10.9878 9.60472 11.2 9.60472H15.2C15.4122 9.60472 15.6157 9.68894 15.7657 9.83886C15.9157 9.98877 16 10.1921 16 10.4041V14.401C16 14.613 15.9157 14.8163 15.7657 14.9663C15.6157 15.1162 15.4122 15.2004 15.2 15.2004ZM4.8 6.4072H0.8C0.587827 6.4072 0.384344 6.32297 0.234315 6.17306C0.0842854 6.02315 0 5.81982 0 5.60781V1.61091C0 1.3989 0.0842854 1.19557 0.234315 1.04566C0.384344 0.895744 0.587827 0.811523 0.8 0.811523C1.01217 0.811523 1.21566 0.895744 1.36569 1.04566C1.51571 1.19557 1.6 1.3989 1.6 1.61091V4.80843H4.8C5.01217 4.80843 5.21566 4.89265 5.36569 5.04257C5.51571 5.19248 5.6 5.3958 5.6 5.60781C5.6 5.81982 5.51571 6.02315 5.36569 6.17306C5.21566 6.32297 5.01217 6.4072 4.8 6.4072Z" fill="#167DF5"/>
<path d="M8.00004 16C6.03182 16.0003 4.13254 15.2757 2.66547 13.9646C1.1984 12.6535 0.266511 10.848 0.0480384 8.89349C0.036482 8.78851 0.0457316 8.68229 0.0752587 8.58089C0.104786 8.47948 0.154012 8.38488 0.220128 8.30249C0.353653 8.13608 0.547865 8.0295 0.760038 8.00618C0.972212 7.98285 1.18497 8.04471 1.3515 8.17813C1.51803 8.31155 1.6247 8.50562 1.64804 8.71763C1.80617 10.1587 2.4496 11.5033 3.47284 12.531C4.49608 13.5587 5.83841 14.2085 7.27974 14.3739C8.72107 14.5393 10.1759 14.2104 11.4056 13.4413C12.6354 12.6721 13.5671 11.5082 14.048 10.1405C14.078 10.0354 14.1293 9.93751 14.1986 9.85295C14.268 9.7684 14.354 9.69895 14.4513 9.64892C14.5485 9.59888 14.6551 9.56931 14.7642 9.56205C14.8734 9.55478 14.9829 9.56997 15.086 9.60667C15.189 9.64337 15.2834 9.70081 15.3634 9.77543C15.4434 9.85004 15.5072 9.94026 15.5509 10.0405C15.5945 10.1407 15.6172 10.2489 15.6174 10.3582C15.6176 10.4675 15.5954 10.5757 15.552 10.6761C14.9992 12.2352 13.9759 13.5845 12.6233 14.538C11.2707 15.4916 9.65538 16.0024 8.00004 16ZM15.152 8.00618C14.9543 8.00737 14.7631 7.93533 14.6153 7.80394C14.4676 7.67256 14.3738 7.49115 14.352 7.29473C14.1868 5.86058 13.5409 4.52447 12.5192 3.50374C11.4976 2.48301 10.1604 1.8377 8.72512 1.67279C7.28984 1.50788 5.84095 1.83307 4.61412 2.59546C3.38728 3.35784 2.45469 4.51258 1.96804 5.87183C1.93804 5.97697 1.88679 6.07484 1.81743 6.1594C1.74808 6.24395 1.66211 6.3134 1.56483 6.36343C1.46755 6.41347 1.36103 6.44304 1.25186 6.4503C1.14269 6.45757 1.03319 6.44238 0.930124 6.40568C0.827062 6.36898 0.732629 6.31154 0.652664 6.23693C0.5727 6.16231 0.508903 6.07209 0.465218 5.97186C0.421534 5.87162 0.39889 5.7635 0.398687 5.65417C0.398484 5.54484 0.420726 5.43664 0.464038 5.33624C1.06638 3.62882 2.23091 2.17627 3.76703 1.21631C5.30316 0.25636 7.11989 -0.154138 8.91991 0.0520023C10.7199 0.258143 12.3966 1.06871 13.6755 2.35105C14.9545 3.63339 15.7599 5.31155 15.96 7.11087C15.9825 7.3206 15.9212 7.53071 15.7893 7.69542C15.6574 7.86012 15.4657 7.96608 15.256 7.99019L15.152 8.00618Z" fill="#167DF5"/>
</svg>
