<svg width="20" height="20" viewBox="0 0 20 20" fill="none" xmlns="http://www.w3.org/2000/svg">
<path d="M10 0C8.02219 0 6.08879 0.58649 4.4443 1.6853C2.79981 2.78412 1.51808 4.3459 0.761205 6.17316C0.004329 8.00043 -0.193704 10.0111 0.192148 11.9509C0.578 13.8907 1.53041 15.6725 2.92893 17.0711C4.32746 18.4696 6.10929 19.422 8.0491 19.8078C9.98891 20.1937 11.9996 19.9957 13.8268 19.2388C15.6541 18.4819 17.2159 17.2002 18.3147 15.5557C19.4135 13.9112 20 11.9778 20 10C20 7.34783 18.9464 4.8043 17.0711 2.92893C15.1957 1.05357 12.6522 0 10 0V0Z" fill="#167DF5"/>
<path d="M10 1.25C8.26941 1.25 6.57769 1.76318 5.13876 2.72464C3.69983 3.6861 2.57832 5.05267 1.91605 6.65152C1.25379 8.25037 1.08051 10.0097 1.41813 11.707C1.75575 13.4044 2.5891 14.9635 3.81281 16.1872C5.03652 17.4109 6.59562 18.2442 8.29296 18.5819C9.99029 18.9195 11.7496 18.7462 13.3485 18.0839C14.9473 17.4217 16.3139 16.3002 17.2754 14.8612C18.2368 13.4223 18.75 11.7306 18.75 10C18.75 7.67935 17.8281 5.45376 16.1872 3.81281C14.5462 2.17187 12.3206 1.25 10 1.25Z" fill="#167DF5"/>
<path d="M10 3.75C9.62916 3.75 9.26665 3.85997 8.9583 4.06599C8.64996 4.27202 8.40964 4.56486 8.26773 4.90747C8.12581 5.25008 8.08868 5.62708 8.16103 5.99079C8.23337 6.35451 8.41195 6.6886 8.67417 6.95082C8.9364 7.21305 9.27049 7.39162 9.6342 7.46397C9.99792 7.53632 10.3749 7.49919 10.7175 7.35727C11.0601 7.21536 11.353 6.97504 11.559 6.66669C11.765 6.35835 11.875 5.99584 11.875 5.625C11.875 5.12772 11.6775 4.65081 11.3258 4.29917C10.9742 3.94754 10.4973 3.75 10 3.75ZM8.33375 16.25H11.6675V8.75H8.33375V16.25Z" fill="white"/>
</svg>
