<svg width="300" height="258" viewBox="0 0 300 258" fill="none" xmlns="http://www.w3.org/2000/svg">
<path d="M298.752 255.3C305.987 240.98 285.308 169.385 141.923 169.385C38.4274 169.385 -9.07413 227.987 1.42751 257.686" fill="url(#paint0_radial_9746_36212)"/>
<mask id="mask0_9746_36212" style="mask-type:luminance" maskUnits="userSpaceOnUse" x="0" y="169" width="300" height="89">
<path d="M298.752 255.3C305.987 240.98 285.308 169.385 141.923 169.385C38.4274 169.385 -9.07413 227.987 1.42751 257.686" fill="white"/>
</mask>
<g mask="url(#mask0_9746_36212)">
<ellipse opacity="0.671968" cx="119.807" cy="209.535" rx="7.88551" ry="4.38001" fill="#7A7A7A"/>
<ellipse opacity="0.729957" cx="200.293" cy="202.849" rx="12.4416" ry="6.83282" fill="#DBDBDB"/>
<ellipse opacity="0.729957" cx="58.7033" cy="184.627" rx="12.4416" ry="6.83282" fill="#DBDBDB"/>
</g>
<g opacity="0.320685">
<ellipse cx="232.689" cy="49.9654" rx="8.41121" ry="8.40963" fill="#363431"/>
<ellipse cx="232.689" cy="49.9654" rx="8.41121" ry="8.40963" fill="#167DF5"/>
<ellipse cx="232.689" cy="49.9654" rx="8.41121" ry="8.40963" fill="#1E9E46"/>
<ellipse cx="232.689" cy="49.9654" rx="8.41121" ry="8.40963" fill="#E33E16"/>
<ellipse cx="232.689" cy="49.9654" rx="8.41121" ry="8.40963" fill="#F5CA14"/>
<ellipse cx="232.689" cy="49.9654" rx="8.41121" ry="8.40963" fill="#18BDE3"/>
<ellipse cx="232.689" cy="49.9654" rx="8.41121" ry="8.40963" fill="#5F5F5F"/>
<ellipse cx="232.689" cy="49.9654" rx="8.41121" ry="8.40963" fill="#7A7A7A"/>
<ellipse cx="232.689" cy="49.9654" rx="8.41121" ry="8.40963" fill="#F4F4F4"/>
<path d="M241.116 49.9654C241.116 45.3209 237.35 41.5558 232.704 41.5558C228.059 41.5558 225.149 44.5253 224.549 47.8735C224.549 47.8735 229.384 50.9005 231.617 51.551C232.329 51.7585 233.035 52.0277 233.753 52.2663C234.557 52.5332 235.376 52.7687 236.204 52.9729C236.771 53.1127 237.549 53.3287 238.274 53.4636C239.231 53.6416 240.088 53.721 240.155 53.721C240.274 53.721 240.404 53.1922 240.672 52.576C240.939 51.9598 241.116 49.9654 241.116 49.9654Z" fill="#7A7A7A"/>
</g>
<g opacity="0.418364">
<circle cx="47.8858" cy="99.5765" r="9.80769" fill="#363431"/>
<circle cx="47.8858" cy="99.5765" r="9.80769" fill="#167DF5"/>
<circle cx="47.8858" cy="99.5765" r="9.80769" fill="#1E9E46"/>
<circle cx="47.8858" cy="99.5765" r="9.80769" fill="#E33E16"/>
<circle cx="47.8858" cy="99.5765" r="9.80769" fill="#F5CA14"/>
<circle cx="47.8858" cy="99.5765" r="9.80769" fill="#18BDE3"/>
<circle cx="47.8858" cy="99.5765" r="9.80769" fill="#5F5F5F"/>
<circle cx="47.8858" cy="99.5765" r="9.80769" fill="#7A7A7A"/>
<circle cx="47.8858" cy="99.5765" r="9.80769" fill="#F4F4F4"/>
</g>
<ellipse opacity="0.425921" cx="154.038" cy="183.23" rx="29.4231" ry="8.07692" fill="#DBDBDB"/>
<path d="M133.729 137.077C133.729 137.077 132.923 139.41 132.923 141.05C132.117 155.331 134.114 178.616 134.114 178.616H137.216L141.795 143.581L148.001 178.616H151.052C151.052 178.616 151.455 156.125 150.246 141.05C150.246 139.427 149.544 137.871 149.544 137.871L133.729 137.077Z" fill="#7A7A7A"/>
<path d="M130.999 119L124.85 120.455L122.752 119.898L109.422 117.962L106.203 117.962L106.19 113.701L106.984 115.337L108.413 115.786C108.413 115.786 109.183 114.23 109.422 114.496C109.66 114.761 109.764 115.854 109.764 115.854L110.955 116.471L125.146 116.471L128.499 114.5L130.999 119Z" fill="#DBDBDB"/>
<path d="M151.001 119L157.334 120.455L159.432 119.898L172.762 117.962L176.409 116.103L177.648 113.628L177.185 113.562L175.2 115.337L173.771 115.786C173.771 115.786 173.001 114.23 172.762 114.496C172.524 114.761 172.42 115.854 172.42 115.854L171.229 116.471L157.038 116.471L153.501 114.5L151.001 119Z" fill="#DBDBDB"/>
<path d="M154.615 114.761L152.664 119.513H147.893L150 139.247C150 139.247 143.983 140.258 140.802 140.504C137.62 140.749 133.094 139.247 133.094 139.247C133.094 139.247 133.094 132.366 133.094 120.015L128.857 119.513L128.077 114.761C128.077 114.761 132.033 111.984 133.094 111.522C134.154 111.06 137.737 110.538 137.737 110.538L143.406 110.538C143.406 110.538 147.91 110.712 148.761 111.522C149.613 112.332 154.615 114.761 154.615 114.761Z" fill="#363431"/>
<path d="M154.615 114.761L152.664 119.513H147.893L150 139.247C150 139.247 143.983 140.258 140.802 140.504C137.62 140.749 133.094 139.247 133.094 139.247C133.094 139.247 133.094 132.366 133.094 120.015L128.857 119.513L128.077 114.761C128.077 114.761 132.033 111.984 133.094 111.522C134.154 111.06 137.737 110.538 137.737 110.538L143.406 110.538C143.406 110.538 147.91 110.712 148.761 111.522C149.613 112.332 154.615 114.761 154.615 114.761Z" fill="#167DF5"/>
<path d="M154.615 114.761L152.664 119.513H147.893L150 139.247C150 139.247 143.983 140.258 140.802 140.504C137.62 140.749 133.094 139.247 133.094 139.247C133.094 139.247 133.094 132.366 133.094 120.015L128.857 119.513L128.077 114.761C128.077 114.761 132.033 111.984 133.094 111.522C134.154 111.06 137.737 110.538 137.737 110.538L143.406 110.538C143.406 110.538 147.91 110.712 148.761 111.522C149.613 112.332 154.615 114.761 154.615 114.761Z" fill="#1E9E46"/>
<path d="M154.615 114.761L152.664 119.513H147.893L150 139.247C150 139.247 143.983 140.258 140.802 140.504C137.62 140.749 133.094 139.247 133.094 139.247C133.094 139.247 133.094 132.366 133.094 120.015L128.857 119.513L128.077 114.761C128.077 114.761 132.033 111.984 133.094 111.522C134.154 111.06 137.737 110.538 137.737 110.538L143.406 110.538C143.406 110.538 147.91 110.712 148.761 111.522C149.613 112.332 154.615 114.761 154.615 114.761Z" fill="#E33E16"/>
<path d="M154.615 114.761L152.664 119.513H147.893L150 139.247C150 139.247 143.983 140.258 140.802 140.504C137.62 140.749 133.094 139.247 133.094 139.247C133.094 139.247 133.094 132.366 133.094 120.015L128.857 119.513L128.077 114.761C128.077 114.761 132.033 111.984 133.094 111.522C134.154 111.06 137.737 110.538 137.737 110.538L143.406 110.538C143.406 110.538 147.91 110.712 148.761 111.522C149.613 112.332 154.615 114.761 154.615 114.761Z" fill="#F5CA14"/>
<path d="M154.615 114.761L152.664 119.513H147.893L150 139.247C150 139.247 143.983 140.258 140.802 140.504C137.62 140.749 133.094 139.247 133.094 139.247C133.094 139.247 133.094 132.366 133.094 120.015L128.857 119.513L128.077 114.761C128.077 114.761 132.033 111.984 133.094 111.522C134.154 111.06 137.737 110.538 137.737 110.538L143.406 110.538C143.406 110.538 147.91 110.712 148.761 111.522C149.613 112.332 154.615 114.761 154.615 114.761Z" fill="#18BDE3"/>
<path d="M154.615 114.761L152.664 119.513H147.893L150 139.247C150 139.247 143.983 140.258 140.802 140.504C137.62 140.749 133.094 139.247 133.094 139.247C133.094 139.247 133.094 132.366 133.094 120.015L128.857 119.513L128.077 114.761C128.077 114.761 132.033 111.984 133.094 111.522C134.154 111.06 137.737 110.538 137.737 110.538L143.406 110.538C143.406 110.538 147.91 110.712 148.761 111.522C149.613 112.332 154.615 114.761 154.615 114.761Z" fill="#5F5F5F"/>
<path d="M154.615 114.761L152.664 119.513H147.893L150 139.247C150 139.247 143.983 140.258 140.802 140.504C137.62 140.749 133.094 139.247 133.094 139.247C133.094 139.247 133.094 132.366 133.094 120.015L128.857 119.513L128.077 114.761C128.077 114.761 132.033 111.984 133.094 111.522C134.154 111.06 137.737 110.538 137.737 110.538L143.406 110.538C143.406 110.538 147.91 110.712 148.761 111.522C149.613 112.332 154.615 114.761 154.615 114.761Z" fill="#7A7A7A"/>
<path d="M154.615 114.761L152.664 119.513H147.893L150 139.247C150 139.247 143.983 140.258 140.802 140.504C137.62 140.749 133.094 139.247 133.094 139.247C133.094 139.247 133.094 132.366 133.094 120.015L128.857 119.513L128.077 114.761C128.077 114.761 132.033 111.984 133.094 111.522C134.154 111.06 137.737 110.538 137.737 110.538L143.406 110.538C143.406 110.538 147.91 110.712 148.761 111.522C149.613 112.332 154.615 114.761 154.615 114.761Z" fill="#F4F4F4"/>
<path fill-rule="evenodd" clip-rule="evenodd" d="M143.021 107.077H139.471V111.789H143.021V107.077ZM140.891 114.485C140.891 113.817 139.471 111.789 139.471 111.789H143.021C143.021 111.789 140.891 115.154 140.891 114.485Z" fill="#DBDBDB"/>
<ellipse cx="141.077" cy="105.642" rx="3.7368" ry="5.29623" fill="#DBDBDB"/>
<path fill-rule="evenodd" clip-rule="evenodd" d="M136.976 105.986C137.275 104.987 137.275 102.785 137.873 102.713C138.471 102.641 139.667 103.058 140.862 102.249C141.46 101.805 141.759 101.749 141.759 101.526C144.749 102.058 142.961 103.661 144.45 105.428C144.605 105.612 145.048 105.428 145.048 105.428C145.048 105.428 145.048 101.078 144.749 100.69C144.45 100.302 143.254 98.7391 142.656 99.854C142.656 99.2966 141.46 98.7214 140.264 99.1483C139.069 99.5753 137.275 100.411 136.976 101.526C136.677 102.641 136.378 104.871 136.976 105.986Z" fill="#5F5F5F"/>
<path d="M134.353 178.615L133.523 180.028C132.978 180.954 132.691 182.009 132.691 183.083C132.691 183.165 132.757 183.231 132.839 183.231H136.696C137.033 183.231 137.307 182.957 137.307 182.62C137.307 181.498 137.101 180.386 136.699 179.339L136.421 178.615H134.353Z" fill="#5F5F5F"/>
<path d="M150.647 178.615L151.477 180.028C152.022 180.954 152.309 182.009 152.309 183.083C152.309 183.165 152.243 183.231 152.161 183.231H148.304C147.967 183.231 147.693 182.957 147.693 182.62C147.693 181.498 147.899 180.386 148.301 179.339L148.579 178.615H150.647Z" fill="#5F5F5F"/>
<path d="M106.203 5.29297H109.665V181.255C109.665 182.21 108.89 182.985 107.934 182.985C106.978 182.985 106.203 182.21 106.203 181.255V5.29297Z" fill="#DBDBDB"/>
<path d="M106.154 5.39612L127.394 10.4479C135.217 12.3089 143.46 10.9755 150.298 6.74292C159.946 0.771166 171.747 -0.610873 182.514 2.97002L189.808 5.39612L184.039 48.5646L182.415 47.9019C171.968 43.6393 160.038 45.2942 151.146 52.2397C144.029 57.798 134.459 59.0621 126.143 55.542L106.154 47.0804V5.39612Z" fill="#DBDBDB"/>
<path d="M157.374 15.5194C158.525 14.2137 160.507 14.1098 161.789 15.288C163.056 16.4534 163.16 18.4354 162.021 19.727L143.01 41.2891C142.451 41.923 141.674 42.2932 140.851 42.3363C140.028 42.3795 139.217 42.0925 138.595 41.5206L127.463 31.2851C126.195 30.1197 126.091 28.1377 127.23 26.8462C128.381 25.5405 130.363 25.4367 131.645 26.6148L140.451 34.7121L157.374 15.5194Z" fill="white"/>
<mask id="mask1_9746_36212" style="mask-type:luminance" maskUnits="userSpaceOnUse" x="126" y="14" width="37" height="29">
<path d="M157.374 15.5194C158.525 14.2137 160.507 14.1098 161.789 15.288C163.056 16.4534 163.16 18.4354 162.021 19.727L143.01 41.2891C142.451 41.923 141.674 42.2932 140.851 42.3363C140.028 42.3795 139.217 42.0925 138.595 41.5206L127.463 31.2851C126.195 30.1197 126.091 28.1377 127.23 26.8462C128.381 25.5405 130.363 25.4367 131.645 26.6148L140.451 34.7121L157.374 15.5194Z" fill="white"/>
</mask>
<g mask="url(#mask1_9746_36212)">
</g>
<path d="M105.461 114.649C105.461 114.649 107.192 113.784 107.192 114.072C107.192 114.361 107.192 117.534 107.192 117.534L106.038 118.111L105.461 114.649Z" fill="#DBDBDB"/>
<defs>
<radialGradient id="paint0_radial_9746_36212" cx="0" cy="0" r="1" gradientUnits="userSpaceOnUse" gradientTransform="translate(130.111 200.008) rotate(-90) scale(51.3403 536.198)">
<stop stop-color="#EBEDF0" stop-opacity="0.24"/>
<stop offset="0.536775" stop-color="#EBEDF0" stop-opacity="0.845525"/>
<stop offset="1" stop-color="#E0E4E7" stop-opacity="0.01"/>
</radialGradient>
</defs>
</svg>
