<svg width="16" height="16" viewBox="0 0 16 16" fill="none" xmlns="http://www.w3.org/2000/svg">
<rect width="16" height="16" fill="white" fill-opacity="0.01"/>
<path fill-rule="evenodd" clip-rule="evenodd" d="M7.99996 13.3333C6.58547 13.3333 5.22892 12.7714 4.22872 11.7712C3.22853 10.771 2.66663 9.41448 2.66663 7.99999C2.66663 6.5855 3.22853 5.22895 4.22872 4.22875C5.22892 3.22856 6.58547 2.66666 7.99996 2.66666C9.41445 2.66666 10.771 3.22856 11.7712 4.22875C12.7714 5.22895 13.3333 6.5855 13.3333 7.99999C13.3333 9.41448 12.7714 10.771 11.7712 11.7712C10.771 12.7714 9.41445 13.3333 7.99996 13.3333ZM8.90929 6.02399L7.47463 8.76399L6.44596 7.83732C6.38087 7.77875 6.30488 7.73358 6.22233 7.70438C6.13978 7.67517 6.05228 7.66252 5.96484 7.66713C5.8774 7.67174 5.79172 7.69353 5.7127 7.73126C5.63368 7.76898 5.56286 7.8219 5.50429 7.88699C5.44572 7.95208 5.40055 8.02807 5.37135 8.11062C5.34214 8.19317 5.32949 8.28067 5.3341 8.36811C5.33871 8.45555 5.3605 8.54123 5.39823 8.62025C5.43595 8.69927 5.48887 8.77009 5.55396 8.82866L7.22063 10.3287C7.29614 10.3967 7.3862 10.4465 7.48393 10.4744C7.58166 10.5022 7.68447 10.5074 7.7845 10.4895C7.88452 10.4715 7.97913 10.4309 8.06107 10.3708C8.14301 10.3107 8.21013 10.2327 8.25729 10.1427L10.0906 6.64266C10.1727 6.486 10.1891 6.30317 10.1364 6.13439C10.0836 5.96561 9.96595 5.8247 9.80929 5.74266C9.65264 5.66062 9.46981 5.64417 9.30103 5.69693C9.13224 5.74969 8.99133 5.86734 8.90929 6.02399Z" fill="#00875A"/>
</svg>
