<svg width="36" height="36" viewBox="0 0 36 36" fill="none" xmlns="http://www.w3.org/2000/svg">
<circle cx="18" cy="18" r="18" fill="#650ACC"/>
<path d="M9.95845 23V12.8182H13.5877C14.3765 12.8182 15.0311 12.9541 15.5515 13.2259C16.0752 13.4976 16.4663 13.8738 16.7248 14.3544C16.9833 14.8317 17.1126 15.3835 17.1126 16.0099C17.1126 16.633 16.9817 17.1816 16.7198 17.6555C16.4613 18.1262 16.0702 18.4924 15.5465 18.7543C15.0262 19.0161 14.3716 19.147 13.5827 19.147H10.8335V17.8246H13.4435C13.9407 17.8246 14.3451 17.7533 14.6566 17.6108C14.9715 17.4683 15.2018 17.2611 15.3477 16.9893C15.4935 16.7176 15.5664 16.3911 15.5664 16.0099C15.5664 15.6255 15.4918 15.2924 15.3427 15.0107C15.1969 14.7289 14.9665 14.5135 14.6516 14.3643C14.3401 14.2119 13.9308 14.1357 13.4237 14.1357H11.4947V23H9.95845ZM14.9847 18.4062L17.5004 23H15.7504L13.2844 18.4062H14.9847ZM18.9819 23V12.8182H20.5181V17.6804H20.6424L24.913 12.8182H26.8469L22.7404 17.402L26.8619 23H25.0124L21.7212 18.451L20.5181 19.8331V23H18.9819Z" fill="white"/>
</svg>
