<svg width="28" height="20" viewBox="0 0 28 20" fill="none" xmlns="http://www.w3.org/2000/svg">
<g clip-path="url(#clip0_62_27)">
<path d="M10 0C8.02219 0 6.08879 0.58649 4.4443 1.6853C2.79981 2.78412 1.51809 4.3459 0.761209 6.17316C0.00433281 8.00043 -0.1937 10.0111 0.192152 11.9509C0.578004 13.8907 1.53041 15.6725 2.92894 17.0711C4.32746 18.4696 6.10929 19.422 8.0491 19.8078C9.98891 20.1937 11.9996 19.9957 13.8268 19.2388C15.6541 18.4819 17.2159 17.2002 18.3147 15.5557C19.4135 13.9112 20 11.9778 20 10C20 7.34783 18.9464 4.8043 17.0711 2.92893C15.1957 1.05357 12.6522 0 10 0V0Z" fill="white" fill-opacity="0.9"/>
<path d="M10 1.25C8.26942 1.25 6.57769 1.76318 5.13876 2.72464C3.69983 3.6861 2.57832 5.05267 1.91606 6.65152C1.25379 8.25037 1.08051 10.0097 1.41813 11.707C1.75575 13.4044 2.58911 14.9635 3.81282 16.1872C5.03653 17.4109 6.59563 18.2442 8.29296 18.5819C9.9903 18.9195 11.7496 18.7462 13.3485 18.0839C14.9473 17.4217 16.3139 16.3002 17.2754 14.8612C18.2368 13.4223 18.75 11.7306 18.75 10C18.75 7.67935 17.8281 5.45376 16.1872 3.81281C14.5462 2.17187 12.3206 1.25 10 1.25V1.25Z" fill="white" fill-opacity="0.9"/>
<path d="M13.83 4.4025L10 8.2325L6.17003 4.4025L4.40253 6.17L8.23253 10L4.40253 13.83L6.17003 15.5975L10 11.7675L13.83 15.5975L15.5975 13.83L11.7675 10L15.5975 6.17L13.83 4.4025Z" fill="#E33E16"/>
</g>
<defs>
<clipPath id="clip0_62_27">
<rect width="28" height="20" fill="white"/>
</clipPath>
</defs>
</svg>
