<svg width="18" height="18" viewBox="0 0 18 18" fill="none" xmlns="http://www.w3.org/2000/svg">
<path d="M9 0C7.21997 0 5.47991 0.527841 3.99987 1.51677C2.51982 2.50571 1.36627 3.91131 0.685084 5.55585C0.00389571 7.20038 -0.174334 9.00998 0.172933 10.7558C0.5202 12.5016 1.37737 14.1053 2.63604 15.364C3.89471 16.6226 5.49836 17.4798 7.24419 17.8271C8.99002 18.1743 10.7996 17.9961 12.4441 17.3149C14.0887 16.6337 15.4943 15.4802 16.4832 14.0001C17.4722 12.5201 18 10.78 18 9C18 6.61305 17.0518 4.32387 15.364 2.63604C13.6761 0.948211 11.3869 0 9 0V0Z" fill="#007850"/>
<path d="M9 1.125C7.44247 1.125 5.91992 1.58686 4.62488 2.45218C3.32985 3.31749 2.32049 4.5474 1.72445 5.98637C1.12841 7.42533 0.972457 9.00873 1.27632 10.5363C1.58017 12.0639 2.33019 13.4671 3.43153 14.5685C4.53287 15.6698 5.93606 16.4198 7.46366 16.7237C8.99126 17.0275 10.5747 16.8716 12.0136 16.2755C13.4526 15.6795 14.6825 14.6701 15.5478 13.3751C16.4131 12.0801 16.875 10.5575 16.875 9C16.875 6.91142 16.0453 4.90838 14.5685 3.43153C13.0916 1.95468 11.0886 1.125 9 1.125Z" fill="#029C70"/>
<path d="M13.1884 5.06137L7.55662 10.6931L4.80937 7.95487L3.22087 9.54675L7.55887 13.8746L14.7791 6.65325L13.1884 5.06137Z" fill="white"/>
</svg>
