<svg width="16" height="16" viewBox="0 0 16 16" fill="none" xmlns="http://www.w3.org/2000/svg">
<rect width="16" height="16" fill="white" fill-opacity="0.01"/>
<path fill-rule="evenodd" clip-rule="evenodd" d="M8.5109 2.65519C8.67288 2.72231 8.82004 2.82068 8.94399 2.94469L13.056 7.05602C13.1801 7.17998 13.2786 7.32719 13.3457 7.48922C13.4129 7.65126 13.4475 7.82495 13.4475 8.00036C13.4475 8.17577 13.4129 8.34946 13.3457 8.51149C13.2786 8.67353 13.1801 8.82073 13.056 8.94469L8.94399 13.056C8.82004 13.18 8.67288 13.2784 8.5109 13.3455C8.34893 13.4126 8.17532 13.4472 7.99999 13.4472C7.82466 13.4472 7.65104 13.4126 7.48907 13.3455C7.3271 13.2784 7.17993 13.18 7.05599 13.056L2.94399 8.94469C2.81988 8.82073 2.72142 8.67353 2.65424 8.51149C2.58707 8.34946 2.55249 8.17577 2.55249 8.00036C2.55249 7.82495 2.58707 7.65126 2.65424 7.48922C2.72142 7.32719 2.81988 7.17998 2.94399 7.05602L7.05599 2.94469C7.17993 2.82068 7.3271 2.72231 7.48907 2.65519C7.65104 2.58807 7.82466 2.55353 7.99999 2.55353C8.17532 2.55353 8.34893 2.58807 8.5109 2.65519ZM7.52858 9.13809C7.6536 9.26311 7.82317 9.33335 7.99998 9.33335C8.1768 9.33335 8.34636 9.26311 8.47139 9.13809C8.59641 9.01307 8.66665 8.8435 8.66665 8.66669V5.33335C8.66665 5.15654 8.59641 4.98697 8.47139 4.86195C8.34636 4.73692 8.1768 4.66669 7.99998 4.66669C7.82317 4.66669 7.6536 4.73692 7.52858 4.86195C7.40356 4.98697 7.33332 5.15654 7.33332 5.33335V8.66669C7.33332 8.8435 7.40356 9.01307 7.52858 9.13809ZM7.52858 11.1381C7.6536 11.2631 7.82317 11.3334 7.99998 11.3334C8.1768 11.3334 8.34636 11.2631 8.47139 11.1381C8.59641 11.0131 8.66665 10.8435 8.66665 10.6667C8.66665 10.4899 8.59641 10.3203 8.47139 10.1953C8.34636 10.0703 8.1768 10 7.99998 10C7.82317 10 7.6536 10.0703 7.52858 10.1953C7.40356 10.3203 7.33332 10.4899 7.33332 10.6667C7.33332 10.8435 7.40356 11.0131 7.52858 11.1381Z" fill="#DE350B"/>
</svg>
