<svg width="18" height="17" viewBox="0 0 18 17" fill="none" xmlns="http://www.w3.org/2000/svg">
<path d="M17.6378 12.1401L11.2104 1.30122C10.9915 0.907098 10.6712 0.578695 10.2827 0.350046C9.8941 0.121397 9.45147 0.000823975 9.00064 0.000823975C8.5498 0.000823975 8.10717 0.121397 7.71862 0.350046C7.33007 0.578695 7.00974 0.907098 6.79083 1.30122L0.361487 12.1401C0.129118 12.5468 0.00471863 13.0063 0.000131619 13.4747C-0.00445539 13.9431 0.110923 14.4049 0.335282 14.8161C0.554399 15.2166 0.878217 15.55 1.27214 15.7808C1.66606 16.0116 2.11528 16.131 2.5718 16.1263H15.4305C15.8868 16.1308 16.3358 16.0113 16.7296 15.7806C17.1233 15.5498 17.447 15.2164 17.666 14.8161C17.8899 14.4046 18.0048 13.9428 17.9998 13.4744C17.9949 13.006 17.8703 12.5467 17.6378 12.1401Z" fill="#E3AF14"/>
<path d="M9.00013 1.12476C9.25532 1.1276 9.50511 1.19862 9.72361 1.33047C9.94211 1.46232 10.1214 1.65019 10.2429 1.87463L16.6631 12.6984C16.7998 12.9382 16.8729 13.209 16.8758 13.485C16.8786 13.761 16.811 14.0332 16.6793 14.2757C16.5566 14.4986 16.3755 14.6838 16.1555 14.8115C15.9355 14.9392 15.6848 15.0045 15.4305 15.0004H2.5718C2.31728 15.0047 2.06642 14.9394 1.84621 14.8117C1.62599 14.6841 1.44476 14.4987 1.32201 14.2757C1.19093 14.0364 1.12273 13.7677 1.12379 13.4948C1.12484 13.222 1.19513 12.9538 1.32806 12.7155L7.76547 1.86153C7.88861 1.64126 8.06751 1.45724 8.28421 1.32792C8.50091 1.19861 8.74781 1.12854 9.00013 1.12476Z" fill="#F5CA14"/>
<path d="M9.00013 11.626C8.77767 11.626 8.5602 11.6919 8.37522 11.8155C8.19025 11.9391 8.04608 12.1148 7.96095 12.3203C7.87581 12.5259 7.85354 12.752 7.89694 12.9702C7.94034 13.1884 8.04747 13.3888 8.20477 13.5461C8.36208 13.7035 8.5625 13.8106 8.7807 13.854C8.99889 13.8974 9.22505 13.8751 9.43058 13.79C9.63611 13.7048 9.81178 13.5607 9.93538 13.3757C10.059 13.1907 10.1249 12.9733 10.1249 12.7508C10.1241 12.4527 10.0054 12.1671 9.79461 11.9563C9.58384 11.7455 9.29821 11.6268 9.00013 11.626ZM7.87533 3.75031V10.5032H10.126V3.75031H7.87533Z" fill="#262314"/>
</svg>
