<svg width="24" height="24" viewBox="0 0 24 24" fill="none" xmlns="http://www.w3.org/2000/svg">
<path opacity="0.95" d="M12 0.000263984C10.3977 -0.0105098 8.81028 0.308603 7.3366 0.937743C5.90519 1.53735 4.60368 2.40893 3.50419 3.50419C2.40893 4.60368 1.53735 5.90519 0.937743 7.3366C0.308603 8.81028 -0.0105098 10.3977 0.000263984 12C-0.0105098 13.6023 0.308603 15.1897 0.937743 16.6634C1.53735 18.0948 2.40893 19.3963 3.50419 20.4958C4.60368 21.5911 5.90519 22.4626 7.3366 23.0623C8.81028 23.6914 10.3977 24.0105 12 23.9997C13.6023 24.0105 15.1897 23.6914 16.6634 23.0623C18.0948 22.4626 19.3963 21.5911 20.4958 20.4958C21.5911 19.3963 22.4626 18.0948 23.0623 16.6634C23.6914 15.1897 24.0105 13.6023 23.9997 12C24.0105 10.3977 23.6914 8.81028 23.0623 7.3366C22.4626 5.90519 21.5911 4.60368 20.4958 3.50419C19.3963 2.40893 18.0948 1.53735 16.6634 0.937743C15.1897 0.308603 13.6023 -0.0105098 12 0.000263984ZM20.9998 12C21.0041 12.9158 20.8659 13.8266 20.5903 14.6999C20.3251 15.5428 19.9342 16.3407 19.4308 17.0669L6.93761 4.57066C7.66227 4.06714 8.45871 3.67575 9.30006 3.40969C10.1734 3.13408 11.0842 2.99594 12 3.0002C13.1998 2.99336 14.3883 3.23279 15.4919 3.70368C16.5641 4.15794 17.5388 4.81437 18.3629 5.63714C19.1856 6.46116 19.8421 7.43588 20.2963 8.50808C20.7672 9.61167 21.0066 10.8002 20.9998 12ZM3.0002 12C2.99706 11.1306 3.12345 10.2657 3.37519 9.43356C3.6176 8.62708 3.97098 7.85824 4.42517 7.14911L16.8509 19.5703C16.1418 20.0245 15.3729 20.3779 14.5664 20.6203C13.7346 20.8736 12.8696 21.0015 12 20.9998C10.8002 21.0066 9.61167 20.7672 8.50808 20.2963C7.43588 19.8421 6.46116 19.1856 5.63714 18.3629C4.81437 17.5388 4.15794 16.5641 3.70368 15.4919C3.23279 14.3883 2.99336 13.1998 3.0002 12Z" fill="#4F5E70" fill-opacity="0.72"/>
</svg>
