<svg width="15" height="14" viewBox="0 0 15 14" fill="none" xmlns="http://www.w3.org/2000/svg">
<path fill-rule="evenodd" clip-rule="evenodd" d="M5.0903 5.04516C5.0903 6.43832 6.21972 7.56774 7.61288 7.56774C9.00604 7.56774 10.1355 6.43832 10.1355 5.04516C10.1355 3.65201 9.00604 2.52258 7.61288 2.52258C6.21972 2.52258 5.0903 3.65201 5.0903 5.04516ZM6.35159 5.04516C6.35159 5.74177 6.91627 6.30645 7.61288 6.30645C8.30949 6.30645 8.87417 5.74177 8.87417 5.04516C8.87417 4.34855 8.30949 3.78387 7.61288 3.78387C6.91627 3.78387 6.35159 4.34855 6.35159 5.04516Z" fill="#4F5E70"/>
<path fill-rule="evenodd" clip-rule="evenodd" d="M5.0903 5.04516C5.0903 6.43832 6.21972 7.56774 7.61288 7.56774C9.00604 7.56774 10.1355 6.43832 10.1355 5.04516C10.1355 3.65201 9.00604 2.52258 7.61288 2.52258C6.21972 2.52258 5.0903 3.65201 5.0903 5.04516ZM6.35159 5.04516C6.35159 5.74177 6.91627 6.30645 7.61288 6.30645C8.30949 6.30645 8.87417 5.74177 8.87417 5.04516C8.87417 4.34855 8.30949 3.78387 7.61288 3.78387C6.91627 3.78387 6.35159 4.34855 6.35159 5.04516Z" fill="black" fill-opacity="0.2"/>
<path fill-rule="evenodd" clip-rule="evenodd" d="M7.61288 0C11.4441 0 14.55 3.10586 14.55 6.9371C14.55 10.7683 11.4441 13.8742 7.61288 13.8742C3.78165 13.8742 0.675781 10.7683 0.675781 6.9371C0.675781 3.10586 3.78165 0 7.61288 0ZM13.2887 6.9371C13.2887 8.25527 12.8393 9.4685 12.0854 10.4319C11.0484 9.07429 9.41255 8.19839 7.5722 8.19839C5.75575 8.19839 4.13853 9.05171 3.09966 10.3793C2.37032 9.42455 1.93707 8.23143 1.93707 6.9371C1.93707 3.80241 4.47819 1.26129 7.61288 1.26129C10.7476 1.26129 13.2887 3.80241 13.2887 6.9371ZM7.61288 12.6129C8.96889 12.6129 10.2138 12.1373 11.1901 11.3439C10.3918 10.2046 9.06897 9.45968 7.5722 9.45968C6.09403 9.45968 4.78551 10.1862 3.98427 11.3017C4.96801 12.1204 6.23296 12.6129 7.61288 12.6129Z" fill="#4F5E70"/>
<path fill-rule="evenodd" clip-rule="evenodd" d="M7.61288 0C11.4441 0 14.55 3.10586 14.55 6.9371C14.55 10.7683 11.4441 13.8742 7.61288 13.8742C3.78165 13.8742 0.675781 10.7683 0.675781 6.9371C0.675781 3.10586 3.78165 0 7.61288 0ZM13.2887 6.9371C13.2887 8.25527 12.8393 9.4685 12.0854 10.4319C11.0484 9.07429 9.41255 8.19839 7.5722 8.19839C5.75575 8.19839 4.13853 9.05171 3.09966 10.3793C2.37032 9.42455 1.93707 8.23143 1.93707 6.9371C1.93707 3.80241 4.47819 1.26129 7.61288 1.26129C10.7476 1.26129 13.2887 3.80241 13.2887 6.9371ZM7.61288 12.6129C8.96889 12.6129 10.2138 12.1373 11.1901 11.3439C10.3918 10.2046 9.06897 9.45968 7.5722 9.45968C6.09403 9.45968 4.78551 10.1862 3.98427 11.3017C4.96801 12.1204 6.23296 12.6129 7.61288 12.6129Z" fill="black" fill-opacity="0.2"/>
</svg>
