<svg width="36" height="36" viewBox="0 0 36 36" fill="none" xmlns="http://www.w3.org/2000/svg">
<circle cx="18" cy="18" r="18" fill="#097FAA"/>
<path d="M8.32466 12.8182H10.189L13.4305 20.733H13.5498L16.7913 12.8182H18.6556V23H17.194V15.6321H17.0995L14.0967 22.9851H12.8836L9.88077 15.6271H9.78631V23H8.32466V12.8182ZM20.8891 23V12.8182H24.5184C25.3072 12.8182 25.9618 12.9541 26.4822 13.2259C27.0058 13.4976 27.3969 13.8738 27.6555 14.3544C27.914 14.8317 28.0432 15.3835 28.0432 16.0099C28.0432 16.633 27.9123 17.1816 27.6505 17.6555C27.392 18.1262 27.0009 18.4924 26.4772 18.7543C25.9568 19.0161 25.3022 19.147 24.5134 19.147H21.7641V17.8246H24.3742C24.8714 17.8246 25.2757 17.7533 25.5873 17.6108C25.9021 17.4683 26.1325 17.2611 26.2783 16.9893C26.4242 16.7176 26.4971 16.3911 26.4971 16.0099C26.4971 15.6255 26.4225 15.2924 26.2733 15.0107C26.1275 14.7289 25.8972 14.5135 25.5823 14.3643C25.2707 14.2119 24.8614 14.1357 24.3543 14.1357H22.4253V23H20.8891ZM25.9154 18.4062L28.431 23H26.681L24.2151 18.4062H25.9154Z" fill="white"/>
</svg>
